<?xml version="1.0" encoding="UTF-8" standalone="no"?>
<svg
   xmlns:dc="http://purl.org/dc/elements/1.1/"
   xmlns:cc="http://creativecommons.org/ns#"
   xmlns:rdf="http://www.w3.org/1999/02/22-rdf-syntax-ns#"
   xmlns:svg="http://www.w3.org/2000/svg"
   xmlns="http://www.w3.org/2000/svg"
   xmlns:sodipodi="http://sodipodi.sourceforge.net/DTD/sodipodi-0.dtd"
   xmlns:inkscape="http://www.inkscape.org/namespaces/inkscape"
   version="1.1"
   id="Layer_1"
   x="0px"
   y="0px"
   width="100px"
   height="100px"
   viewBox="0 0 100 100"
   enable-background="new 0 0 100 100"
   xml:space="preserve"
   inkscape:version="0.48.4 r9939"
   sodipodi:docname="substripe.svg"
   inkscape:export-filename="/home/nexus/Public/substripe/public/apple-touch-icon-precomposed.png"
   inkscape:export-xdpi="136.62921"
   inkscape:export-ydpi="136.62921"><metadata
     id="metadata9"><rdf:RDF><cc:Work
         rdf:about=""><dc:format>image/svg+xml</dc:format><dc:type
           rdf:resource="http://purl.org/dc/dcmitype/StillImage" /><dc:title></dc:title></cc:Work></rdf:RDF></metadata><defs
     id="defs7"><mask
       maskUnits="userSpaceOnUse"
       id="mask3840"><path
         style="fill:none;stroke:#ffffff;stroke-width:1px;stroke-linecap:butt;stroke-linejoin:miter;stroke-opacity:1"
         d="M 30.932202,95.762713 C 63.310245,66.815819 117.09359,-40.963786 91.031071,-15.960449 87.683547,-12.748969 19.064634,39.059455 15.395476,40.536722 -25.202055,56.881987 0.1129765,55.270666 42.161019,41.52542 57.700829,36.445552 139.43504,-51.993368 65.819214,35.875712 39.617413,67.150616 15.734761,58.525829 9.392649,68.502834 1.411749,81.057877 52.918127,62.991362 42.372871,72.88135 -7.3736826,119.53672 3.0983967,45.303762 12.782493,31.214679 24.194864,14.611182 74.821706,-11.645714 90.960464,-0.2824754 109.59329,12.836832 34.867429,80.542756 87.07626,78.813575 112.49321,77.971754 42.5481,103.00652 22.316367,88.276827 -0.3805803,71.752339 -4.1979896,38.942834 12.217525,16.66665 18.984097,7.4842754 28.657706,0.6265944 39.516543,-2.8361147"
         id="path3842"
         inkscape:connector-curvature="0"
         sodipodi:nodetypes="csssssssssssc" /></mask></defs><sodipodi:namedview
     pagecolor="#ffffff"
     bordercolor="#666666"
     borderopacity="1"
     objecttolerance="10"
     gridtolerance="10"
     guidetolerance="10"
     inkscape:pageopacity="0"
     inkscape:pageshadow="2"
     inkscape:window-width="784"
     inkscape:window-height="480"
     id="namedview5"
     showgrid="false"
     inkscape:zoom="1.668772"
     inkscape:cx="33.842564"
     inkscape:cy="46.106813"
     inkscape:window-x="282"
     inkscape:window-y="88"
     inkscape:window-maximized="0"
     inkscape:current-layer="Layer_1" /><path
     clip-rule="evenodd"
     d="m 13.667,0.499 0,73.047 36.335,25.955 36.333,-25.955 0,-73.047 -72.668,0 z"
     id="path3"
     style="fill:#008cdf;fill-opacity:0.94117647;fill-rule:evenodd"
     inkscape:connector-curvature="0"
     sodipodi:nodetypes="ccccccc" /><path
     clip-rule="evenodd"
     d="m 13.667,0.499 0,73.047 36.335,25.955 36.333,-25.955 0,-73.047 -72.668,0 z"
     id="path3-5"
     style="fill-opacity:0.94117647000000004;fill-rule:evenodd;fill:#ffffff;stroke:#ffffff"
     inkscape:connector-curvature="0"
     sodipodi:nodetypes="ccccccc"
     mask="url(#mask3840)" /></svg>